<?xml version="1.0" encoding="utf-8"?>
<!-- Generator: Adobe Illustrator 28.3.0, SVG Export Plug-In . SVG Version: 6.00 Build 0)  -->
<svg version="1.1" id="Capa_1" xmlns="http://www.w3.org/2000/svg" xmlns:xlink="http://www.w3.org/1999/xlink" x="0px" y="0px"
	 viewBox="0 0 1366 556.4" style="enable-background:new 0 0 1366 556.4;" xml:space="preserve">
<style type="text/css">
	.st0{fill:#FFFFFF;}
	.st1{fill:#848484;}
</style>
<g>
	<g>
		<g>
			<g>
				<path d="M470.1,142.1c17.9-1.2,33.8-1.9,47.6-1.9c38.2,0,57.3,12.8,57.3,38.3c0,9.6-2.8,17.8-8.4,24.7
					c-5.6,6.9-14.5,11.6-26.7,14c11.8,1.4,21,5,27.9,10.7c6.8,5.7,10.2,15.7,10.2,29.9c0,29.9-19.1,44.8-57.3,44.8h-50.6V142.1z
					 M517.7,142.5c-9,0-18.4,0.5-28.3,1.6v72.4h34.4c21.8-0.9,32.7-13.5,32.7-37.6c0-11.8-3.2-20.8-9.8-27
					C540.2,145.7,530.5,142.5,517.7,142.5z M489.4,300.4h31.3c13.8,0,23.6-3.6,29.4-10.8c5.8-7.2,8.7-18.2,8.7-33.1
					c0-14.9-2.9-24.8-8.8-29.7c-5.9-4.9-14.6-7.6-26.2-7.9h-34.4V300.4z"/>
				<path d="M597.7,225.4c0-28.2,6.9-49.6,20.5-64.2c13.7-14.6,31.3-21.9,52.8-21.9c21.5,0,38.6,6.3,51.4,19
					c12.8,12.7,19.1,33,19.1,60.8c0,27.9-6.8,48.9-20.4,63.1c-13.6,14.2-31.8,21.4-54.5,21.4c-19.7,0-35.7-5.6-48.3-16.9
					c-6.5-5.9-11.6-14-15.2-24.5C599.6,251.7,597.7,239.5,597.7,225.4z M670.4,141.6c-15.6,0-28.4,7-38.4,20.9
					c-10,13.9-15,34.4-15,61.3c0,26.9,4.7,46.6,14.2,59c9.4,12.4,22,18.6,37.7,18.6c15.7,0,28.5-7,38.5-21c10-14,15-34.4,15-61
					s-4.8-46.3-14.3-58.8C698.6,147.9,686,141.6,670.4,141.6z"/>
				<path d="M756,302.7h-2.8l69.4-162.5l2.6-1.2l58.5,163.6H864l-18.1-51.1h-67.8L756,302.7z M815.5,165.3l-36.4,84h66.2
					L815.5,165.3z"/>
				<path d="M940.8,302.7h-19.3V142.5h-40.2v-2.3h99.8v2.3h-40.4V302.7z"/>
				<path d="M985.8,225.4c0-28.2,6.9-49.6,20.5-64.2c13.7-14.6,31.3-21.9,52.8-21.9c21.5,0,38.6,6.3,51.4,19
					c12.8,12.7,19.1,33,19.1,60.8c0,27.9-6.8,48.9-20.4,63.1c-13.6,14.2-31.8,21.4-54.5,21.4c-19.7,0-35.7-5.6-48.3-16.9
					c-6.5-5.9-11.6-14-15.2-24.5C987.6,251.7,985.8,239.5,985.8,225.4z M1058.5,141.6c-15.6,0-28.4,7-38.4,20.9
					c-10,13.9-15,34.4-15,61.3c0,26.9,4.7,46.6,14.2,59c9.4,12.4,22,18.6,37.7,18.6c15.7,0,28.5-7,38.5-21c10-14,15-34.4,15-61
					s-4.8-46.3-14.3-58.8C1086.7,147.9,1074.1,141.6,1058.5,141.6z"/>
				<path d="M1243.2,150c-14.1-5.4-27.3-8.1-39.8-8.1c-12.5,0-22.2,2.6-29.1,7.9c-7,5.3-10.4,12.5-10.4,21.8
					c0,11.3,5.9,20,17.6,26.2c5.3,2.6,11,5.1,17.3,7.3c6.3,2.2,12.6,4.8,18.9,7.5c6.3,2.8,12.1,6,17.4,9.5
					c5.3,3.6,9.5,8.5,12.8,14.7c3.2,6.3,4.9,14.2,4.9,23.9c0,9.7-2.7,17.9-8.1,24.7c-5.4,6.8-12,11.4-19.6,13.8
					c-7.7,2.4-16.6,3.6-26.8,3.6c-19,0-35.3-4.7-48.7-14.2l1.2-1.9c5.1,4,11.7,7.3,19.8,9.9c8.1,2.6,16.4,3.8,25,3.8
					c12.5,0,23.3-2.9,32.1-8.7c8.9-5.8,13.3-14.4,13.3-25.6c0-12.4-5.9-22.1-17.6-29c-5.3-3.1-11-6-17.3-8.6
					c-6.3-2.6-12.6-5.4-18.9-8.2c-6.3-2.9-12.1-6.1-17.4-9.6c-11.8-7.7-17.6-18.7-17.6-33c0-11.3,3.8-20.5,11.4-27.5
					c7.6-7,19-10.6,34.2-10.6c15.2,0,30.8,2.6,46.5,7.9L1243.2,150z"/>
			</g>
		</g>
		<g>
			<g>
				<path d="M530.7,392.2c-2.6,14.3-15.1,25.1-30.1,25.1c-16.9,0-30.6-13.7-30.6-30.6c0-17,13.7-30.7,30.6-30.7
					c15,0,27.5,10.9,30.1,25.1h-1.6c-2.6-13.4-14.4-23.5-28.4-23.5c-16,0-28.9,13-28.9,29c0,15.9,12.9,28.9,28.9,28.9
					c13.5,0,24.8-9.2,28.1-21.8h-26.4v-1.6H530.7z"/>
				<path d="M545.1,387.5l33.5,29.8h-2.3l-33.5-29.8h-1.9v29.8h-1.6v-61.2h23.6c8.6,0,15.7,7,15.7,15.8c0,8.6-7,15.7-15.7,15.7
					H545.1z M540.9,385.9h22c7.7,0,14-6.3,14-14c0-7.8-6.3-14.1-14-14.1h-22V385.9z"/>
				<path d="M587.2,386.7c0-17,13.7-30.7,30.6-30.7c16.9,0,30.6,13.7,30.6,30.7c0,16.9-13.7,30.6-30.6,30.6
					C600.9,417.3,587.2,403.6,587.2,386.7z M588.8,386.7c0,15.9,12.9,28.9,28.9,28.9c15.9,0,28.9-13,28.9-28.9c0-16-13-29-28.9-29
					C601.7,357.7,588.8,370.7,588.8,386.7z"/>
				<path d="M704,356.1v37.7c0,13-10.6,23.5-23.5,23.5c-13,0-23.5-10.5-23.5-23.5v-37.7h1.6v37.7c0,12.1,9.8,21.9,21.9,21.9
					c12.1,0,21.9-9.8,21.9-21.9h-0.1v-37.7H704z"/>
				<path d="M712.5,417.3v-61.2h24.7c8.6,0,15.7,7,15.7,15.8c0,8.6-7,15.7-15.7,15.7h-23v29.8H712.5z M714.2,385.9h23
					c7.7,0,14-6.3,14-14c0-7.8-6.3-14.1-14-14.1h-23V385.9z"/>
				<path d="M834,401.6c0,8.6-8.4,15.7-18.8,15.7h-5.7c-10.4,0-18.8-7-18.8-15.7c0-0.2,0-0.3,0-0.3h2c0,0.1,0,0.2,0,0.3
					c0,7.7,7.6,14,16.9,14h5.7c9.3,0,16.9-6.3,16.9-14c0-7.8-7.5-14.1-16.9-14.1c-9.4,0.3-13-1.9-13-1.9c-5.9-3.5-9.5-7.9-9.5-13.8
					c0-8.7,8.5-15.8,18.8-15.8h1.7c10,0,18.3,6.6,18.8,14.9H830c-0.5-7.4-7.8-13.3-16.8-13.3h-1.7c-9.2,0-16.9,6.3-16.9,14.1
					c0,7.7,7.6,14,16.9,14c-0.8,0,0,0,0,0s4.9-0.1,7.4,0.3C827.5,387.4,834,393.9,834,401.6z"/>
				<path d="M881.3,415.7v1.6h-38.8v-61.2h1.6v59.6H881.3z"/>
			</g>
		</g>
	</g>
	<g>
		<rect x="113.2" y="90.5" width="270.7" height="375.4"/>
		<g>
			<path class="st0" d="M307.2,332.9c0,23.2-4.5,40.4-13.6,51.6c-9,11.2-24.3,16.8-45.8,16.8h-48.9v-92.1l-30.1,30.1v65.6h78.9
				c56.6,0,86.3-21,89.1-63l-31.4-29.8C306.6,318.2,307.2,325.1,307.2,332.9z"/>
			<path class="st0" d="M337,319.5l-4.1-26.7l-31-29.1c7.3-3.7,13.2-8.4,17.7-13.9c8.7-10.7,13-23.6,13-38.6
				c0-39.8-29.8-59.7-89.4-59.7c-21.5,0-46.2,1-74.2,2.9V294l-8.6,8.6v22.6l88.9-88.8L337,319.5z M198.9,263.9V157.6
				c15.4-1.7,30.2-2.5,44.2-2.5c20,0,35.1,4.9,45.3,14.7c10.1,9.8,15.2,23.8,15.2,42.2c0,18.3-4.1,32.3-12.3,41.9L248.8,214
				L198.9,263.9z"/>
		</g>
	</g>
</g>
</svg>
