<?xml version="1.0" encoding="utf-8"?>
<!-- Generator: Adobe Illustrator 28.3.0, SVG Export Plug-In . SVG Version: 6.00 Build 0)  -->
<svg version="1.1" id="Capa_1" xmlns="http://www.w3.org/2000/svg" xmlns:xlink="http://www.w3.org/1999/xlink" x="0px" y="0px"
	 viewBox="0 0 1366 556.4" style="enable-background:new 0 0 1366 556.4;" xml:space="preserve">
<style type="text/css">
	.st0{fill:#FFFFFF;}
</style>
<g>
	<g>
		<g>
			<g>
				<path class="st0" d="M410.5,191.6c19.6-1.4,36.9-2,52-2c41.7,0,62.6,13.9,62.6,41.8c0,10.5-3,19.5-9.1,27
					c-6.1,7.5-15.8,12.6-29.1,15.3c12.8,1.5,23,5.4,30.4,11.7c7.4,6.3,11.2,17.2,11.2,32.7c0,32.6-20.9,48.9-62.6,48.9h-55.3V191.6z
					 M462.5,192.1c-9.8,0-20.1,0.6-30.9,1.8V273h37.5c23.8-1,35.7-14.7,35.7-41.1c0-12.8-3.5-22.7-10.6-29.5
					C487,195.5,476.5,192.1,462.5,192.1z M431.5,364.5h34.2c15,0,25.7-3.9,32.1-11.8c6.3-7.9,9.5-19.9,9.5-36.1
					c0-16.2-3.2-27-9.6-32.4c-6.4-5.4-16-8.3-28.6-8.6h-37.5V364.5z"/>
				<path class="st0" d="M549.9,282.6c0-30.8,7.5-54.1,22.4-70.1c15-16,34.2-24,57.7-24c23.5,0,42.2,6.9,56.1,20.8
					c13.9,13.9,20.9,36,20.9,66.4c0,30.4-7.4,53.4-22.3,69C669.9,360.3,650,368,625.2,368c-21.5,0-39-6.2-52.7-18.5
					c-7.1-6.4-12.6-15.3-16.6-26.7C551.9,311.4,549.9,298,549.9,282.6z M629.3,191.1c-17.1,0-31.1,7.6-42,22.8
					c-10.9,15.2-16.4,37.5-16.4,66.9c0,29.4,5.2,50.9,15.5,64.4c10.3,13.5,24,20.3,41.2,20.3c17.1,0,31.2-7.6,42.1-22.9
					c10.9-15.3,16.3-37.5,16.3-66.7s-5.2-50.6-15.6-64.3C660.1,197.9,646.3,191.1,629.3,191.1z"/>
				<path class="st0" d="M722.8,367h-3l75.8-177.4l2.8-1.3L862.2,367h-21.5l-19.8-55.8h-74L722.8,367z M787.7,217l-39.8,91.8h72.2
					L787.7,217z"/>
				<path class="st0" d="M924.6,367h-21V192.1h-43.9v-2.5h109v2.5h-44.1V367z"/>
				<path class="st0" d="M973.7,282.6c0-30.8,7.5-54.1,22.4-70.1c15-16,34.2-24,57.7-24c23.5,0,42.2,6.9,56.1,20.8
					c13.9,13.9,20.9,36,20.9,66.4c0,30.4-7.4,53.4-22.3,69c-14.9,15.5-34.7,23.3-59.6,23.3c-21.5,0-39-6.2-52.7-18.5
					c-7.1-6.4-12.6-15.3-16.6-26.7C975.7,311.4,973.7,298,973.7,282.6z M1053.1,191.1c-17.1,0-31.1,7.6-42,22.8
					c-10.9,15.2-16.4,37.5-16.4,66.9c0,29.4,5.2,50.9,15.5,64.4c10.3,13.5,24,20.3,41.2,20.3c17.1,0,31.2-7.6,42.1-22.9
					c10.9-15.3,16.3-37.5,16.3-66.7s-5.2-50.6-15.6-64.3C1083.9,197.9,1070.2,191.1,1053.1,191.1z"/>
				<path class="st0" d="M1254.9,200.2c-15.4-5.9-29.9-8.9-43.5-8.9c-13.6,0-24.2,2.9-31.8,8.6c-7.6,5.7-11.4,13.7-11.4,23.8
					c0,12.3,6.4,21.9,19.3,28.6c5.7,2.9,12,5.5,18.9,8c6.8,2.5,13.7,5.2,20.7,8.2c6.9,3,13.3,6.5,19,10.4
					c5.7,3.9,10.4,9.3,13.9,16.1c3.5,6.9,5.3,15.6,5.3,26.1c0,10.6-3,19.6-8.9,27c-5.9,7.4-13.1,12.5-21.4,15.1
					c-8.4,2.6-18.1,3.9-29.3,3.9c-20.8,0-38.5-5.2-53.2-15.5l1.3-2c5.6,4.4,12.8,8,21.7,10.8c8.9,2.8,18,4.2,27.2,4.2
					c13.7,0,25.4-3.2,35.1-9.5c9.7-6.3,14.6-15.7,14.6-28c0-13.5-6.4-24.1-19.3-31.7c-5.7-3.4-12-6.5-18.9-9.4
					c-6.8-2.9-13.7-5.9-20.7-9c-6.9-3.1-13.3-6.6-19-10.5c-12.8-8.4-19.3-20.4-19.3-36c0-12.3,4.1-22.3,12.4-30
					c8.3-7.7,20.7-11.5,37.4-11.5c16.6,0,33.6,2.9,50.8,8.6L1254.9,200.2z"/>
			</g>
		</g>
	</g>
	<g>
		<path class="st0" d="M100.7,109.7v337h243v-337H100.7z M221.5,391.9h-70.9V333l27-27v82.6h43.9c19.3,0,33-5,41.1-15.1
			c8.1-10.1,12.2-25.5,12.2-46.3c0-7-0.5-13.1-1.4-18.6l28.2,26.7C299,373.1,272.3,391.9,221.5,391.9z M222.7,240.6l-79.8,79.7
			v-20.2l7.8-7.8V167c25.1-1.7,47.3-2.6,66.6-2.6c53.5,0,80.3,17.9,80.3,53.6c0,13.4-3.9,25-11.7,34.6c-4,5-9.4,9.2-15.9,12.5
			l27.9,26.1l3.7,24L222.7,240.6z"/>
		<path class="st0" d="M257.9,180.8c-9.1-8.8-22.6-13.2-40.6-13.2c-12.6,0-25.8,0.8-39.7,2.3v95.4l44.8-44.8l38.1,35.7
			c7.3-8.7,11-21.2,11-37.6C271.6,202.2,267,189.6,257.9,180.8z"/>
	</g>
</g>
</svg>
